<?xml version="1.0" encoding="iso-8859-1"?>
<!-- Uploaded to: SVG Repo, www.svgrepo.com, Generator: SVG Repo Mixer Tools -->
<svg height="800px" width="800px" version="1.1" id="Capa_1" xmlns="http://www.w3.org/2000/svg" xmlns:xlink="http://www.w3.org/1999/xlink" 
	 viewBox="0 0 22.645 22.645" xml:space="preserve">
<g>
	<g>
		<path style="fill:#030104;" d="M12.174,12.627H8.808v4.27h3.185c1.089,0,1.857-0.19,2.307-0.571
			c0.448-0.381,0.673-0.912,0.673-1.596c0-0.571-0.216-1.065-0.647-1.479C13.892,12.834,13.175,12.627,12.174,12.627z"/>
		<path style="fill:#030104;" d="M14.122,8.791c0.298-0.454,0.446-0.889,0.446-1.304c0-0.45-0.122-0.837-0.368-1.161
			c-0.248-0.325-0.518-0.528-0.812-0.61c-0.294-0.083-0.875-0.124-1.739-0.124H8.807v3.881h3.14
			C13.099,9.473,13.822,9.246,14.122,8.791z"/>
		<path style="fill:#030104;" d="M21.255,0H1.391C0.622,0,0,0.623,0,1.391v19.864c0,0.767,0.622,1.39,1.391,1.39h19.864
			c0.767,0,1.39-0.623,1.39-1.39V1.39C22.645,0.622,22.022,0,21.255,0z M17.814,18.732c-1.003,0.965-2.634,1.448-4.894,1.448H4.668
			V2.465h8.252c1.48,0,2.593,0.182,3.337,0.545C17,3.372,17.615,3.891,18.099,4.566c0.484,0.674,0.728,1.496,0.728,2.463
			c0,1.963-1.063,3.273-3.191,3.93c1.227,0.277,2.149,0.827,2.763,1.651c0.615,0.82,0.922,1.717,0.922,2.687
			C19.319,16.622,18.817,17.766,17.814,18.732z"/>
	</g>
</g>
</svg>