<?xml version="1.0" encoding="iso-8859-1"?>
<!-- Generator: Adobe Illustrator 19.0.0, SVG Export Plug-In . SVG Version: 6.00 Build 0)  -->
<svg version="1.1" id="Capa_1" xmlns="http://www.w3.org/2000/svg" xmlns:xlink="http://www.w3.org/1999/xlink" x="0px" y="0px"
	 viewBox="0 0 60 60" style="enable-background:new 0 0 60 60;" xml:space="preserve">
<g>
	<path d="M0,0.5v59h60v-59H0z M15,12.5c0-0.553,0.448-1,1-1h28c0.552,0,1,0.447,1,1v4c0,0.553-0.448,1-1,1s-1-0.447-1-1v-3H31v29h5
		c0.552,0,1,0.447,1,1s-0.448,1-1,1H24c-0.552,0-1-0.447-1-1s0.448-1,1-1h5v-29H17v3c0,0.553-0.448,1-1,1s-1-0.447-1-1V12.5z
		 M47,52.5H13v-6h34V52.5z"/>
</g>
<g>
</g>
<g>
</g>
<g>
</g>
<g>
</g>
<g>
</g>
<g>
</g>
<g>
</g>
<g>
</g>
<g>
</g>
<g>
</g>
<g>
</g>
<g>
</g>
<g>
</g>
<g>
</g>
<g>
</g>
</svg>
