<?xml version="1.0" encoding="iso-8859-1"?>
<!-- Generator: Adobe Illustrator 19.0.0, SVG Export Plug-In . SVG Version: 6.00 Build 0)  -->
<svg version="1.1" id="Capa_1" xmlns="http://www.w3.org/2000/svg" xmlns:xlink="http://www.w3.org/1999/xlink" x="0px" y="0px"
	 viewBox="0 0 60 60" style="enable-background:new 0 0 60 60;" xml:space="preserve">
<path d="M0,0.5v59h60v-59H0z M45.865,12.717l-0.889,4c-0.104,0.466-0.518,0.783-0.976,0.783c-0.072,0-0.145-0.008-0.218-0.023
	c-0.539-0.12-0.879-0.654-0.76-1.193l0.618-2.783H31.691l-7.556,34h4.753c0.553,0,1,0.447,1,1s-0.447,1-1,1h-12
	c-0.553,0-1-0.447-1-1s0.447-1,1-1h5.198l7.556-34H17.691l-0.715,3.217c-0.104,0.466-0.518,0.783-0.976,0.783
	c-0.072,0-0.145-0.008-0.218-0.023c-0.539-0.12-0.879-0.654-0.76-1.193l0.889-4c0.007-0.031,0.027-0.053,0.037-0.082
	c0.022-0.068,0.05-0.128,0.084-0.189c0.03-0.051,0.059-0.099,0.096-0.143c0.047-0.057,0.1-0.103,0.158-0.148
	c0.041-0.031,0.081-0.061,0.127-0.086c0.066-0.036,0.135-0.061,0.209-0.082c0.055-0.016,0.108-0.027,0.165-0.033
	c0.035-0.004,0.065-0.02,0.1-0.02h28c0.039,0,0.073,0.018,0.111,0.022c0.036,0.004,0.07-0.006,0.106,0.001
	c0.031,0.007,0.054,0.027,0.083,0.037c0.066,0.021,0.125,0.048,0.184,0.082c0.055,0.031,0.106,0.063,0.154,0.103
	c0.05,0.042,0.091,0.088,0.132,0.139c0.04,0.05,0.075,0.099,0.104,0.155c0.03,0.056,0.05,0.113,0.069,0.175
	c0.02,0.065,0.034,0.129,0.04,0.198c0.003,0.031,0.018,0.057,0.018,0.088c0,0.038-0.017,0.07-0.021,0.106
	C45.863,12.644,45.874,12.679,45.865,12.717z"/>
<g>
</g>
<g>
</g>
<g>
</g>
<g>
</g>
<g>
</g>
<g>
</g>
<g>
</g>
<g>
</g>
<g>
</g>
<g>
</g>
<g>
</g>
<g>
</g>
<g>
</g>
<g>
</g>
<g>
</g>
</svg>
